<?xml version="1.0" encoding="utf-8"?>
<!-- Generator: Adobe Illustrator 17.0.0, SVG Export Plug-In . SVG Version: 6.00 Build 0)  -->
<!DOCTYPE svg PUBLIC "-//W3C//DTD SVG 1.1//EN" "http://www.w3.org/Graphics/SVG/1.1/DTD/svg11.dtd">
<svg version="1.1" xmlns="http://www.w3.org/2000/svg" xmlns:xlink="http://www.w3.org/1999/xlink" x="0px" y="0px" width="150px"
	 height="150px" viewBox="25 5 140 140" enable-background="new 0 0 150 150" xml:space="preserve">
<g id="Ebene_1">
	<g>
		<g>
			<path fill="#E6E6E6" d="M78.05,93.574l-4.35,3.563l-5.484,4.492l-9.644,7.891l-2.597,2.127l-5.409,4.425l-1.399,1.148
				c9.257,9.885,21.72,16.92,35.803,19.58l0.281-1.629l1.19-6.941l0.553-3.241l2.063-12.035l1.216-7.083l0.893-5.206l1.198-7.003
				c-3.347-0.787-6.358-2.401-8.787-4.608L78.05,93.574z"/>
			<path fill="#E6E6E6" d="M105.928,92.134c-2.672,1.317-5.696,2.066-8.905,2.066c-0.218,0-0.435-0.011-0.651-0.016l-1.21,7.071
				l-0.884,5.15c0.822,0.061,1.648,0.09,2.484,0.09c5.687,0,11.027-1.42,15.668-3.912l-2.637-4.234L105.928,92.134z"/>
			<path fill="#E6E6E6" d="M71.384,56.021l-5.438-4.522C61.054,57.499,57.975,65,57.492,73h7.055h5.852h7.121
				c0.394-3,1.685-6.377,3.637-8.959L75.748,59.6L71.384,56.021z"/>
			<path fill="#E6E6E6" d="M56.401,38.537l2.586,2.136l9.618,7.928l5.476,4.511l4.345,3.575l5.436,4.484
				c2.372-2.069,5.273-3.583,8.484-4.344l-1.188-6.866l-0.899-5.202l-1.219-7.085l-2.081-12.031l-0.556-3.242l-1.482-8.578
				l-0.108-0.623c-13.971,2.676-26.34,9.653-35.552,19.453l0.937,0.769L56.401,38.537z"/>
			<path fill="#E6E6E6" d="M65.599,98.645l5.453-4.46l4.386-3.587l5.491-4.484C79.024,83.485,77.791,81,77.474,77h-7.12h-5.842
				h-7.048H44.83c0.372,11,4.465,21.357,11.124,29.553L65.599,98.645z"/>
			<path fill="#E6E6E6" d="M123.432,81.486c0.498-1.98,0.768-4.047,0.768-6.173c0-2.579-0.393-5.068-1.119-7.425l-7.065,2.533
				c0.418,1.536,0.64,3.157,0.64,4.82c0,1.322-0.138,2.611-0.405,3.855L123.432,81.486z"/>
			<path fill="#E6E6E6" d="M122.181,85.198l-7.156-2.38c-1.279,2.822-3.248,5.287-5.701,7.196l3.893,6.263l2.617,4.202l4.031,6.48
				c6.5-4.337,11.598-10.488,14.504-17.705l-7.551-2.512L122.181,85.198z"/>
			<path fill="#E6E6E6" d="M96.35,56.301c0.224-0.008,0.447-0.021,0.672-0.021c2.943,0,5.732,0.633,8.237,1.757l3.674-6.187
				l2.554-4.302l3.862-6.497l6.287-10.586c-7.287-3.702-15.581-5.802-24.391-5.802c-2.133,0-4.23,0.13-6.295,0.364l2.08,12.045
				l1.232,7.146l0.889,5.151L96.35,56.301z"/>
			<path fill="#E6E6E6" d="M131.734,21.316l-0.132,0.217l-4.769,8.033l-1.694,2.848L118.851,43l-3.888,6.547l-2.534,4.264
				l-3.692,6.217c2.456,1.764,4.467,4.075,5.85,6.743l7.059-2.525l4.613-1.653l7.488-2.678l11.859-4.242l3.192-1.145l8.969-3.208
				l0.24-0.089C152.746,38.767,143.474,28.299,131.734,21.316z"/>
		</g>
		
	</g>
</g>
</svg>
