<?xml version="1.0" encoding="utf-8"?>
<!-- Generator: Adobe Illustrator 17.0.0, SVG Export Plug-In . SVG Version: 6.00 Build 0)  -->
<!DOCTYPE svg PUBLIC "-//W3C//DTD SVG 1.1//EN" "http://www.w3.org/Graphics/SVG/1.1/DTD/svg11.dtd">
<svg version="1.1" id="Ebene_1" xmlns="http://www.w3.org/2000/svg" xmlns:xlink="http://www.w3.org/1999/xlink" x="0px" y="0px"
	 width="42.52px" height="42.52px" viewBox="0 0 42.52 42.52" enable-background="new 0 0 42.52 42.52" xml:space="preserve">
<polygon fill="#DB5E41" points="33.958,11.101 33.958,6.022 28.879,6.022 23.8,6.022 23.8,11.101 18.72,11.101 18.72,6.022 
	13.641,6.022 8.561,6.022 8.561,11.101 3.482,11.101 3.482,16.18 3.482,21.26 8.561,21.26 8.561,26.339 13.641,26.339 
	13.641,31.419 18.72,31.419 18.72,36.498 23.8,36.498 23.8,31.419 28.879,31.419 28.879,26.339 33.958,26.339 33.958,21.26 
	39.038,21.26 39.038,16.18 39.038,11.101 "/>
</svg>
