<svg class="svg-graphic" width="180" height="200" viewBox="0 0 560 645" xmlns="http://www.w3.org/2000/svg" xlink="http://www.w3.org/1999/xlink" version="1.1">
    <g>
       <clipPath id="hexagonal-mask">
          <polygon points="33.958,11.101 33.958,6.022 28.879,6.022 23.8,6.022 23.8,11.101 18.72,11.101 18.72,6.022
          	13.641,6.022 8.561,6.022 8.561,11.101 3.482,11.101 3.482,16.18 3.482,21.26 8.561,21.26 8.561,26.339 13.641,26.339
          	13.641,31.419 18.72,31.419 18.72,36.498 23.8,36.498 23.8,31.419 28.879,31.419 28.879,26.339 33.958,26.339 33.958,21.26
          	39.038,21.26 39.038,16.18 39.038,11.101 "/>
       </clipPath>
    </g>

     <image clip-path="url(#hexagonal-mask)" height="100%" width="100%" xlink:href="soundbox.jpg" />
 </svg>